<?xml version="1.0" encoding="UTF-8"?>
<svg id="Layer_2" data-name="Layer 2" xmlns="http://www.w3.org/2000/svg" viewBox="0 0 904.79 903.62">
  <defs>
    <style>
      .cls-1 {
        fill: #0b0b0c;
      }
    </style>
  </defs>
  <g id="_Слой_1" data-name="Слой 1">
    <g>
      <path class="cls-1" d="M3.93,361.13l542.27-7.06c6.43-.08,11.66,5.17,11.55,11.6l-9.49,537.16c-13.11-4.98-24.52-15.21-30.81-30.55l-129.66-317-4.2-10.09c-4.33-10.88-12.98-19.53-23.86-23.99l-19.66-8-68.96-28.19-54.41-22.29-184.06-75.38c-13.63-5.51-23.07-15.08-28.71-26.22Z"/>
      <path class="cls-1" d="M873.12,1.53l-295.41,304.6c-5.18,5.34-12.26,8.39-19.7,8.49L0,321.8c1.44-6.16,4.06-12.19,7.74-17.57,4.59-6.55,10.62-12.32,18.35-16.65,2.88-1.57,6.03-3.02,9.44-4.2l346.89-119.96,89.28-30.81,70.66-24.52L847.82,2.44c8.79-3.02,17.57-3.15,25.3-.92Z"/>
      <path class="cls-1" d="M902.36,56.98l-280.95,812.42c-6.16,17.57-19.01,29.1-33.82,34.22l9.64-550.33c.12-7.09,2.94-13.87,7.88-18.96L902.1,28.14c3.28,8.65,3.8,18.75.26,28.84Z"/>
    </g>
  </g>
</svg>