<svg width="600" height="400" viewBox="0 0 600 400" fill="none" xmlns="http://www.w3.org/2000/svg">
  <rect width="600" height="400" fill="#F8FAFC"/>
  <!-- Browser chrome -->
  <rect x="20" y="20" width="560" height="360" rx="8" fill="white" stroke="#E2E8F0" stroke-width="1"/>
  <rect x="20" y="20" width="560" height="32" rx="8" fill="#F1F5F9"/>
  <rect x="20" y="44" width="560" height="8" fill="#F1F5F9"/>
  <!-- Window buttons -->
  <circle cx="40" cy="36" r="6" fill="#FCA5A5"/>
  <circle cx="60" cy="36" r="6" fill="#FCD34D"/>
  <circle cx="80" cy="36" r="6" fill="#86EFAC"/>
  <!-- URL bar -->
  <rect x="100" y="28" width="200" height="16" rx="4" fill="#E2E8F0"/>
  <!-- Sidebar -->
  <rect x="28" y="60" width="120" height="312" fill="#F8FAFC"/>
  <rect x="40" y="80" width="96" height="8" rx="2" fill="#E2E8F0"/>
  <rect x="40" y="100" width="80" height="6" rx="2" fill="#E2E8F0"/>
  <rect x="40" y="116" width="88" height="6" rx="2" fill="#E2E8F0"/>
  <rect x="40" y="132" width="72" height="6" rx="2" fill="#E2E8F0"/>
  <rect x="40" y="160" width="96" height="8" rx="2" fill="#E2E8F0"/>
  <rect x="40" y="180" width="80" height="6" rx="2" fill="#E2E8F0"/>
  <rect x="40" y="196" width="88" height="6" rx="2" fill="#E2E8F0"/>
  <!-- Main content area -->
  <rect x="160" y="72" width="408" height="40" rx="4" fill="#EFF6FF"/>
  <rect x="172" y="84" width="120" height="16" rx="2" fill="#3B82F6"/>
  <!-- Cards row -->
  <rect x="160" y="124" width="128" height="80" rx="4" fill="white" stroke="#E2E8F0"/>
  <rect x="172" y="136" width="60" height="8" rx="2" fill="#E2E8F0"/>
  <rect x="172" y="152" width="104" height="6" rx="2" fill="#F1F5F9"/>
  <rect x="172" y="164" width="80" height="6" rx="2" fill="#F1F5F9"/>
  <rect x="172" y="184" width="48" height="12" rx="2" fill="#DBEAFE"/>
  <rect x="300" y="124" width="128" height="80" rx="4" fill="white" stroke="#E2E8F0"/>
  <rect x="312" y="136" width="60" height="8" rx="2" fill="#E2E8F0"/>
  <rect x="312" y="152" width="104" height="6" rx="2" fill="#F1F5F9"/>
  <rect x="312" y="164" width="80" height="6" rx="2" fill="#F1F5F9"/>
  <rect x="312" y="184" width="48" height="12" rx="2" fill="#DBEAFE"/>
  <rect x="440" y="124" width="128" height="80" rx="4" fill="white" stroke="#E2E8F0"/>
  <rect x="452" y="136" width="60" height="8" rx="2" fill="#E2E8F0"/>
  <rect x="452" y="152" width="104" height="6" rx="2" fill="#F1F5F9"/>
  <rect x="452" y="164" width="80" height="6" rx="2" fill="#F1F5F9"/>
  <rect x="452" y="184" width="48" height="12" rx="2" fill="#DBEAFE"/>
  <!-- Table area -->
  <rect x="160" y="216" width="408" height="144" rx="4" fill="white" stroke="#E2E8F0"/>
  <rect x="160" y="216" width="408" height="28" rx="4" fill="#F8FAFC"/>
  <rect x="172" y="224" width="80" height="10" rx="2" fill="#E2E8F0"/>
  <rect x="280" y="224" width="60" height="10" rx="2" fill="#E2E8F0"/>
  <rect x="380" y="224" width="60" height="10" rx="2" fill="#E2E8F0"/>
  <rect x="480" y="224" width="60" height="10" rx="2" fill="#E2E8F0"/>
  <!-- Table rows -->
  <rect x="172" y="256" width="100" height="8" rx="2" fill="#F1F5F9"/>
  <rect x="280" y="256" width="40" height="8" rx="2" fill="#F1F5F9"/>
  <rect x="380" y="256" width="50" height="8" rx="2" fill="#F1F5F9"/>
  <rect x="480" y="256" width="32" height="8" rx="2" fill="#86EFAC"/>
  <rect x="172" y="280" width="120" height="8" rx="2" fill="#F1F5F9"/>
  <rect x="280" y="280" width="36" height="8" rx="2" fill="#F1F5F9"/>
  <rect x="380" y="280" width="44" height="8" rx="2" fill="#F1F5F9"/>
  <rect x="480" y="280" width="32" height="8" rx="2" fill="#86EFAC"/>
  <rect x="172" y="304" width="88" height="8" rx="2" fill="#F1F5F9"/>
  <rect x="280" y="304" width="48" height="8" rx="2" fill="#F1F5F9"/>
  <rect x="380" y="304" width="56" height="8" rx="2" fill="#F1F5F9"/>
  <rect x="480" y="304" width="32" height="8" rx="2" fill="#FCD34D"/>
  <rect x="172" y="328" width="96" height="8" rx="2" fill="#F1F5F9"/>
  <rect x="280" y="328" width="44" height="8" rx="2" fill="#F1F5F9"/>
  <rect x="380" y="328" width="48" height="8" rx="2" fill="#F1F5F9"/>
  <rect x="480" y="328" width="32" height="8" rx="2" fill="#86EFAC"/>
</svg>
