<?xml version="1.0" encoding="UTF-8"?>
<svg id="_Слой_1" data-name="Слой 1" xmlns="http://www.w3.org/2000/svg" viewBox="445 390 410 125">
  <defs>
    <style>
      .cls-1 {
        fill: #0b0b0c;
      }
    </style>
  </defs>
  <g>
    <path class="cls-1" d="M455.98,457.41l50.1-.65c.59,0,1.08.48,1.07,1.07l-.88,49.63c-1.21-.46-2.27-1.4-2.85-2.82l-11.98-29.29-.39-.93c-.4-1.01-1.2-1.8-2.2-2.22l-1.82-.74-6.37-2.6-5.03-2.06-17.01-6.96c-1.26-.51-2.13-1.39-2.65-2.42Z"/>
    <path class="cls-1" d="M536.28,424.18l-27.29,28.14c-.48.49-1.13.78-1.82.78l-51.55.66c.13-.57.38-1.13.71-1.62.42-.61.98-1.14,1.7-1.54.27-.15.56-.28.87-.39l32.05-11.08,8.25-2.85,6.53-2.26,28.22-9.76c.81-.28,1.62-.29,2.34-.08Z"/>
    <path class="cls-1" d="M538.99,429.31l-25.96,75.06c-.57,1.62-1.76,2.69-3.12,3.16l.89-50.84c.01-.66.27-1.28.73-1.75l27.44-28.29c.3.8.35,1.73.02,2.66Z"/>
  </g>
  <g>
    <g>
      <path class="cls-1" d="M581.78,444.84c3.29-2.06,7.05-3.1,11.28-3.1,4.52,0,8.53,1.23,12.02,3.69,3.49,2.46,5.97,5.7,7.45,9.73l16.96-7.37c-1.57-4.82-4.16-8.97-7.74-12.46-3.59-3.49-7.84-6.24-12.76-8.26-4.92-2.01-10.23-3.02-15.93-3.02-7.96,0-15.12,1.82-21.46,5.46-6.34,3.64-11.33,8.6-14.97,14.9-3.64,6.29-5.46,13.42-5.46,21.39s1.82,15.12,5.46,21.46c3.64,6.34,8.63,11.36,14.97,15.04,6.34,3.69,13.5,5.53,21.46,5.53,5.8,0,11.16-1.01,16.08-3.02,4.92-2.02,9.14-4.82,12.68-8.41,3.54-3.59,6.1-7.64,7.67-12.17l-16.96-7.67c-1.48,4.13-3.93,7.43-7.37,9.88-3.44,2.46-7.47,3.69-12.09,3.69-4.23,0-7.99-1.03-11.28-3.1-3.3-2.07-5.88-4.92-7.74-8.55-1.87-3.64-2.8-7.82-2.8-12.54s.93-8.9,2.8-12.54c1.87-3.64,4.45-6.49,7.74-8.55Z"/>
      <path class="cls-1" d="M657.52,481.13v-55.31h-19.32v56.78c0,8.26,2.14,14.38,6.42,18.36,4.28,3.98,10.89,5.97,19.84,5.97h3.54v-16.81h-.74c-6.49,0-9.73-3-9.73-9Z"/>
      <rect class="cls-1" x="675.65" y="425.82" width="19.32" height="80.24"/>
      <polygon class="cls-1" points="778.46 506.06 755.89 506.06 739.15 481.12 722.41 506.06 699.69 506.06 727.72 465.79 699.55 425.82 722.26 425.82 778.46 506.06"/>
      <path class="cls-1" d="M823.59,460.04l-12.83-3.83c-1.87-.59-3.52-1.23-4.94-1.92-1.43-.69-2.53-1.57-3.32-2.65-.79-1.08-1.18-2.36-1.18-3.83,0-2.36.93-4.28,2.8-5.75,1.87-1.47,4.42-2.21,7.67-2.21,4.03,0,7.67,1.08,10.91,3.25,3.25,2.16,5.55,5.07,6.93,8.7l14.75-6.93c-2.46-6.59-6.59-11.7-12.39-15.34-5.8-3.64-12.49-5.46-20.06-5.46-5.8,0-10.94,1.03-15.41,3.1-4.48,2.06-7.96,4.94-10.47,8.63-2.51,3.69-3.76,7.99-3.76,12.91,0,5.51,1.74,10.28,5.24,14.31,3.49,4.03,8.63,7.03,15.41,9l13.13,3.69c1.67.49,3.22,1.11,4.65,1.84,1.42.74,2.56,1.62,3.39,2.65.83,1.03,1.25,2.34,1.25,3.91,0,2.56-1.03,4.62-3.1,6.19-2.06,1.57-4.87,2.36-8.41,2.36-4.52,0-8.63-1.28-12.32-3.83-3.69-2.56-6.56-6.1-8.63-10.62l-14.45,6.93c2.36,6.98,6.71,12.51,13.05,16.59,6.34,4.08,13.79,6.12,22.34,6.12,6.1,0,11.41-1.03,15.93-3.1,4.52-2.07,8.06-4.94,10.62-8.63,2.56-3.69,3.83-7.94,3.83-12.76,0-5.7-1.8-10.52-5.38-14.46-3.59-3.93-8.68-6.88-15.27-8.85Z"/>
      <path class="cls-1" d="M776.98,425.81l-13.46.04h-3.12s-3.93.02-3.93.02l-15.29.04c-.15,0-.29.01-.43.04-.36.06-.68.21-.95.41-.34.25-.59.58-.75.96h0c-.36.86-.22,1.92.61,2.65l6.24,5.45,1.85,1.61,2.33,2.04.67.58c.37.32.59.78.62,1.27l.03.45.83,14.24c.13,2.13,2.82,2.97,4.14,1.29l22.04-28.21c.91-1.17.08-2.89-1.41-2.88Z"/>
    </g>
    <circle class="cls-1" cx="685.31" cy="404.67" r="12.49"/>
  </g>
</svg>